<svg xmlns="http://www.w3.org/2000/svg" xmlns:xlink="http://www.w3.org/1999/xlink" width="150" height="16.492" viewBox="0 0 150 16.492">
  <defs>
    <clipPath id="clip-path">
      <rect id="사각형_9" data-name="사각형 9" width="150" height="16.492" fill="none"/>
    </clipPath>
  </defs>
  <g id="그룹_6" data-name="그룹 6" transform="translate(0 0)">
    <g id="그룹_5" data-name="그룹 5" transform="translate(0 0)" clip-path="url(#clip-path)">
      <path id="패스_7" data-name="패스 7" d="M13.84,1.829A7.956,7.956,0,0,0,8.222,0,7.947,7.947,0,0,0,2.615,1.82C.88,3.249,0,5.412,0,8.246a8.021,8.021,0,0,0,2.6,6.417,7.953,7.953,0,0,0,5.617,1.829,7.957,7.957,0,0,0,5.614-1.826,8.046,8.046,0,0,0,2.6-6.42c0-2.835-.876-5-2.593-6.418m-8.771,2.6A4.023,4.023,0,0,1,8.222,3.107a3.963,3.963,0,0,1,3.135,1.325,5.649,5.649,0,0,1,1.167,3.814,5.646,5.646,0,0,1-1.167,3.819,3.972,3.972,0,0,1-3.135,1.32,4.023,4.023,0,0,1-3.153-1.321A5.59,5.59,0,0,1,3.886,8.246,5.59,5.59,0,0,1,5.069,4.428" transform="translate(0 0)" fill="#ff3232"/>
      <path id="패스_8" data-name="패스 8" d="M86.1,2.041H82.2V17.647H94.446V14.5H86.1Z" transform="translate(-63.517 -1.577)" fill="#ff3232"/>
      <rect id="사각형_8" data-name="사각형 8" width="3.887" height="15.606" transform="translate(32.575 0.464)" fill="#ff3232"/>
      <path id="패스_9" data-name="패스 9" d="M181.558,13.341,178.68,2.04h-5.451V17.646H176.9V7.164q0-.271,0-.677l2.752,11.159h3.72l2.775-11.172q0,.414,0,.689V17.646h3.671V2.04h-5.395Z" transform="translate(-133.863 -1.577)" fill="#ff3232"/>
      <path id="패스_10" data-name="패스 10" d="M270.442,3.26a6.4,6.4,0,0,0-4.086-1.22h-7.382V17.646h3.886V12.185h3.27a7.051,7.051,0,0,0,4.316-1.155A4.692,4.692,0,0,0,272,7.061a4.584,4.584,0,0,0-1.553-3.8M262.86,5.1H265.8a2.823,2.823,0,0,1,1.731.462,1.808,1.808,0,0,1,.581,1.523,1.929,1.929,0,0,1-.588,1.57,2.656,2.656,0,0,1-1.725.5H262.86Z" transform="translate(-200.123 -1.577)" fill="#ff3232"/>
      <path id="패스_11" data-name="패스 11" d="M330.665,2.041h-3.909V17.647h12.251V14.5h-8.342Z" transform="translate(-252.502 -1.577)" fill="#ff3232"/>
      <path id="패스_12" data-name="패스 12" d="M389.631,2.04,383.5,17.646h4.1l1.133-3.122H394.6l1.1,3.122h4.239L393.866,2.04Zm3.9,9.449h-3.685l1.867-5.147Z" transform="translate(-296.354 -1.577)" fill="#ff3232"/>
      <path id="패스_13" data-name="패스 13" d="M472.964,12.112,466.657,2.041h-3.984V17.647h3.671V7.384l6.477,10.262h3.815V2.041h-3.671Z" transform="translate(-357.532 -1.577)" fill="#ff3232"/>
      <path id="패스_14" data-name="패스 14" d="M540.966,11.011h8.115V7.955h-8.115V5.147h8.841V2.04H537.136V17.646h13.078V14.5h-9.249Z" transform="translate(-415.074 -1.577)" fill="#ff3232"/>
      <path id="패스_15" data-name="패스 15" d="M598.683,2.041V5.148H603.7v12.5h3.932V5.148h5V2.041Z" transform="translate(-462.635 -1.577)" fill="#ff3232"/>
    </g>
  </g>
</svg>
